<svg width="100px" style="height: 32px;width: 42px;" height="100px" viewBox="0 0 100 100" version="1.1" xmlns="http://www.w3.org/2000/svg" xmlns:xlink="http://www.w3.org/1999/xlink">
    <g stroke="none" stroke-width="1" fill="none" fill-rule="evenodd">
        <g>
            <g id="Logo">
                <g id="Subtraction-1" fill="#ff7900" fill-rule="nonzero">
                    <path d="M61.8397879,99.2438492 C61.3198924,98.8114111 60.9149171,98.2567695 60.660989,97.6294029 L60.5431091,97.6294029 C59.7421954,95.3877881 58.3537074,93.4035366 56.5234051,91.8849504 C54.6936564,90.3033834 52.350364,89.4457814 49.9339195,89.4733197 C49.3513,89.4727361 48.7696671,89.5213295 48.1951912,89.6185844 C48.8732432,87.981918 49.6539893,86.3898792 50.5327493,84.8520115 C51.031349,83.9985405 51.6270879,83.2058998 52.3080204,82.4899834 C64.5198713,81.6720464 75.2436572,74.0653665 80.07064,62.7971843 C84.8976228,51.5290021 83.0131812,38.5009818 75.1920425,29.0691732 C76.0006985,25.1623786 76.560628,17.6723872 71.2300996,11.4071075 C68.184699,7.90369092 64.2151173,5.3314669 59.7768899,3.98561497 C59.9949518,3.56508638 60.1862978,3.13118495 60.3497861,2.68649947 C60.6985186,2.0278346 61.1497594,1.4290362 61.686544,0.912616315 C62.1613905,0.364792722 62.8397347,0.0360825263 63.5631918,0.00323546757 C64.6678059,0.0174227597 65.7669221,0.161710075 66.837895,0.433124595 C68.0329543,0.724695474 69.2004356,1.11985603 70.3271396,1.61413868 C71.4631044,2.11314962 72.5268871,2.76302626 73.489857,3.54627773 C74.3987259,4.26933435 75.178736,5.14145667 75.7967663,6.12561249 C76.1515613,6.68361594 76.2691173,7.36051466 76.1232936,8.00578692 C76.0357857,8.50260251 75.8914124,8.98765716 75.693032,9.45134816 C74.7706442,11.5031172 74.4725537,13.7818179 74.8360453,16.0024333 C75.1991649,18.293193 76.2901307,20.4055013 77.9468954,22.0256051 C79.6297499,23.7265769 81.8840568,24.7394483 84.2711513,24.867125 C84.6495457,24.8954694 85.0314765,24.9096415 85.4063346,24.9096415 C87.4206523,24.9193154 89.4122676,24.4833853 91.2390313,23.6329653 C91.7483993,23.3264231 92.3342199,23.171194 92.9282501,23.185361 C93.0587038,23.185361 93.1926939,23.1912661 93.3302205,23.2030762 C94.1215065,23.2627352 94.8644182,23.6076174 95.4214096,24.1738698 C96.682905,25.4769144 97.6529598,27.0341734 98.2670301,28.7420323 C99.0737754,30.7230423 99.6324584,32.7965531 99.9303153,34.9151929 C100.123517,35.9062519 99.9111427,36.9335243 99.3409158,37.7661609 C98.9193515,38.3567523 98.3440038,38.8200198 97.6776307,39.1054309 C95.4313497,39.9166881 93.4610546,41.350089 91.9958202,43.2389802 C90.4552495,45.1350743 89.6216686,47.5093982 89.6382225,49.9542263 C89.5955308,52.241369 90.2895581,54.4814216 91.6174257,56.3423315 C92.9146645,58.1481864 94.728727,59.516747 96.8194651,60.2668413 C97.2691095,60.5195976 97.6986745,60.806644 98.1043558,61.1254385 C98.8857919,61.7612319 99.4492235,62.6259305 99.7157739,63.598482 C99.8547002,64.6364886 99.8148284,65.6906816 99.597894,66.7151782 C99.3674282,67.9849589 99.0083972,69.2279022 98.5263658,70.4247435 C98.05355,71.6177193 97.4405786,72.7500216 96.7004064,73.7977197 C96.1008631,74.6948484 95.2915041,75.4315329 94.3428087,75.9436223 C93.6501209,76.3270257 92.8792997,76.5471549 92.0889453,76.587275 C91.3555768,76.5688655 90.6309221,76.4234225 89.9470678,76.1573858 C89.0651157,75.9078836 88.1692453,75.7107056 87.2641216,75.5668788 C86.5915166,75.4528607 85.9105003,75.3959698 85.228336,75.3968128 C84.8240079,75.3968128 84.4031768,75.415709 83.9894184,75.4546824 C82.859517,75.5673986 81.7447844,75.8001864 80.6640268,76.1491187 C79.5714031,76.4975621 78.5898463,77.1285848 77.8184064,77.9785096 C76.1740504,79.6334244 75.1200435,81.7852483 74.8195421,84.1008866 C74.5307352,86.3350647 74.8691364,88.6056729 75.7967663,90.6578768 C76.514768,92.0340024 76.3880794,93.6996287 75.470239,94.950863 C74.8956538,95.6534072 74.2055744,96.25252 73.4297382,96.7223841 C72.4540193,97.3583709 71.4291314,97.91522 70.3648612,98.387614 C69.2430211,98.8943873 68.0743693,99.289944 66.8756166,99.5686281 C65.8253936,99.8335723 64.7485399,99.9781886 63.6657473,99.9996982 C62.9846576,99.9830438 62.3339821,99.7136992 61.8397879,99.2438492 Z M35.2449069,99.9996982 C34.0999528,99.9761539 32.9637817,99.7937228 31.868827,99.4576128 C30.5909506,99.0892362 29.3370612,98.6419575 28.1143527,98.1183428 C26.9256007,97.6133933 25.7938667,96.9831187 24.7382728,96.2381684 C23.8731963,95.6533007 23.1114715,94.9280627 22.4844093,94.0922658 C22.1234067,93.5701217 21.9189066,92.9554685 21.8950099,92.3207446 C21.9409402,91.3208754 22.2168859,90.3451668 22.7013083,89.4697766 C23.5060448,87.7055966 23.8196711,85.7562351 23.6089835,83.8280723 C23.3824601,81.6230307 22.4191908,79.5592837 20.8753489,77.9714235 C19.9025251,76.918253 18.6322518,76.1873694 17.2340392,75.8763045 C16.1239454,75.6219491 14.9896026,75.4888984 13.8508865,75.4794837 C13.6233784,75.4794837 13.3923338,75.4853888 13.1636468,75.49838 C11.5958492,75.5831454 10.0457041,75.8717633 8.55218569,76.3569772 C8.16214189,76.4701399 7.75823551,76.5281764 7.35216845,76.5294053 C6.7325725,76.5246284 6.12046748,76.3932166 5.5533214,76.1432137 C4.62804954,75.7323843 3.85667556,75.038125 3.35014634,74.160291 C2.64397081,73.0702783 2.03304901,71.9212149 1.52418692,70.725902 C1.01545438,69.4789304 0.614756708,68.190416 0.326527283,66.8746151 C0.0561092175,65.8035709 -0.0146252952,64.6917129 0.117879885,63.594939 C0.16512656,62.254634 1.0061022,61.0718954 2.25504221,60.5892581 C4.49500696,59.6565083 6.48105719,58.2027324 8.04883858,56.3482365 C9.69347568,54.5432706 10.6097908,52.1903008 10.6197989,49.7463678 C10.6434631,47.3112203 9.72158417,44.9621729 8.04883858,43.1952827 C6.44741439,41.4150542 4.46744994,40.0177972 2.25504221,39.1066119 C1.53481475,38.82055 0.955653462,38.2623566 0.642445376,37.5523974 C0.227991477,36.775451 0.00755741637,35.9094825 1.42108547e-14,35.0285702 C0.0167267359,33.9761117 0.160806441,32.9295709 0.429082783,31.9118741 C0.71400916,30.7744585 1.0888728,29.6615764 1.55012049,28.5837764 C1.99406172,27.551346 2.53355776,26.5628496 3.16153853,25.6312412 C3.66929402,24.8337713 4.34476773,24.1570282 5.1407418,23.6483185 C5.55335204,23.3705151 6.03599317,23.2153376 6.53290325,23.2007142 C6.62356666,23.2006912 6.71413452,23.2066089 6.80402699,23.2184294 C7.40575497,23.3049365 7.99784864,23.4488879 8.57222527,23.6483185 C10.1086499,24.2672723 11.7493209,24.5851984 13.4053006,24.5848627 C14.0318506,24.5842201 14.6576431,24.5412122 15.2784119,24.4561321 C17.6090372,24.1250513 19.7703722,23.0479457 21.4399936,21.3854955 C22.3120022,20.4967864 22.9559451,19.4095092 23.3166413,18.2168347 C23.6998621,17.0109161 23.9527876,15.767272 24.0710726,14.5072695 C24.1729312,13.3990669 24.1729312,12.2838313 24.0710726,11.1756287 C23.9531927,10.1516895 23.875392,9.44898614 23.8058429,9.02972613 C23.6487616,8.53740355 23.5227739,8.03566115 23.4286272,7.52747622 C23.3109242,7.02369246 23.3661579,6.49486541 23.5854075,6.02640731 C24.0844689,4.94322767 24.8851179,4.02747663 25.891138,3.38920286 C27.0135647,2.62812549 28.2180422,1.99623059 29.4817593,1.50548539 C30.6986129,1.02429676 31.9542782,0.64815362 33.2350549,0.381159975 C34.1861698,0.160253371 35.1566769,0.0336683911 36.1325425,0.00323546757 C36.9626038,-0.0368202615 37.7671353,0.296685067 38.3262871,0.912616315 C38.8242849,1.45621311 39.2061675,2.09602356 39.4485037,2.79279074 C40.2836919,4.79140366 41.6101571,6.54574192 43.3043547,7.89240957 C44.3355991,8.74737936 45.5366953,9.3726078 46.8277845,9.72652445 L46.8419301,10.1020869 C46.8631484,10.6642496 46.8902608,11.364591 46.8902608,12.4641151 L46.8902608,17.4161072 C33.0945861,18.7883737 21.6759889,28.755665 18.4299373,42.2591182 C15.1838857,55.7625715 20.8211767,69.8452971 32.4806236,77.3596582 C32.6810088,79.4105368 33.1160921,81.4315319 33.7773024,83.38283 C35.2576255,87.5714234 37.6987934,91.3533235 40.9043202,94.4241307 C40.1961635,95.3709138 39.6287604,96.4155609 39.2198167,97.5254737 C38.912887,98.3200168 38.3421672,98.9843969 37.6036834,99.4068291 C36.8819573,99.8047341 36.06982,100.008964 35.2460857,99.9996982 L35.2449069,99.9996982 Z M50.957056,61.4608296 C43.9694629,70.5313362 40.8993111,80.4242836 44.7364352,91.7570654 C44.8297698,92.360946 44.838526,92.9748036 44.7624535,93.5810811 C37.3834556,87.7744246 34.3642091,77.0838225 37.2024592,67.8330549 C38.5434546,63.4821557 40.7066718,59.4264483 43.5757957,55.8840059 C50.6199501,47.2247195 57.19917,38.2308238 61.8439907,28.003267 C63.9605176,23.3254949 65.7659569,18.5463259 64.837219,13.1756757 C69.5080579,15.2306507 71.7263952,19.5479009 71.2105554,24.8160278 C70.5148505,31.9599953 67.1856475,38.0246503 63.5736377,43.9608694 C59.6941353,50.0206161 55.4822199,55.8627968 50.957056,61.4608296 Z" id="Subtraction_2"></path>
                </g>
                <g id="Subtraction-2" transform="translate(23.310811, 6.756757)" fill="#FF7900" fill-rule="nonzero">
                    <path d="M17.362409,20.8020919 C15.5972891,25.9700835 5.4428028,32.4684937 5.75007273,32.8050245 C6.41507663,33.5723148 13.5876988,31.4173958 16.4159279,27.4833505 C20.206338,22.3546207 22.3404062,25.1938191 24.6931519,26.0385115 C20.9173203,29.192927 20.3061447,27.237683 18.4367324,28.6354077 C23.1691379,29.4026979 24.7290374,32.5503829 25.4198341,36.8243243 C29.5541148,31.2926142 33.0948868,25.3410018 35.9836398,19.0678364 C37.2941594,15.8146919 37.518375,12.2249535 36.6228509,8.83393408 C35.5433824,4.09908524 31.5971246,0.559301978 26.7745132,0 C26.7745132,4.55438379 26.5704142,9.10876759 26.85077,13.6373507 C27.0301976,16.6818329 26.0063384,17.7878975 23.0648455,17.2449611 C20.0986814,16.7076335 18.4367324,17.6286062 17.362409,20.8020919 Z" id="Path_3"></path>
                    <path d="M51.8089372,47.0989527 C52.8727159,46.7890992 53.534599,45.7279406 53.3465341,44.6338133 C52.7568786,39.1913706 52.2705532,33.7219127 48.4787874,28.7162162 C43.1247153,40.4498299 34.7224048,49.8713904 27.9329427,60.3465448 C24.6757979,65.3792565 22.553038,71.0018007 24.244507,77.7027027 C24.6456664,77.1429381 25.0135748,76.5599753 25.3463204,75.9568436 C30.7262251,63.1707617 38.9499541,52.9781416 51.8089372,47.0989527 Z" id="Path_5"></path>
                    <path d="M18.7438251,45.6081081 C20.6607218,43.0203107 21.7340047,40.0967009 20.2517988,37.068717 C18.7953606,34.0668266 15.805181,34.4809196 13.0200231,34.5841592 C9.90212501,34.7134923 7.0150164,35.8264381 4.00018937,36.5763434 C3.28429398,35.6971049 4.71608475,34.0407331 3.20811106,33.8070258 C2.14722841,33.6900463 1.08530861,34.0180205 0.26946695,34.7146268 C-0.548379105,35.5428128 0.729925483,36.3970922 1.01000975,37.2502372 C1.98134198,40.0195548 3.56549859,41.2867927 6.65762888,40.0195548 C8.35094929,39.445465 10.1131388,39.1058206 11.896325,39.0098487 C16.7249777,38.4187735 18.8715435,40.6163025 18.7438251,45.6081081 Z" id="Path_6"></path>
                </g>
            </g>
        </g>
    </g>
</svg>