<svg version="1.1"
     xmlns="http://www.w3.org/2000/svg" xmlns:xlink="http://www.w3.org/1999/xlink">
    <g fill="#ff7900" fill-rule="nonzero">
        <path d="M325 446l83 12 75 150c9 17 30 17 38 0l75-150 79-12 71 125c8 17 29 12 37 0l50-125 130-25c16-4 20-25 8-38l-96-87 17-133c0-17-17-30-34-21l-112 66-71-33c0 0-4 0-4 0l12-67c5-16-16-29-29-20l-154 83-150-79c-17-9-33 4-29 21l12 66c-4 0-4 0-8 0l-71 34-112-67c-17-8-34 4-34 21l17 129-100 87c-12 13-8 34 8 38l130 25 54 121c8 16 29 16 37 0l71-121z m-46-8l-41 75-42-92c-4-8-8-13-17-13l-96-20 75-67c5-4 9-13 9-17l-13-100 88 50c4 4 12 4 21 0l79-37 8 58-121 117c-12 12-4 33 13 37l37 9z m438 4l41-4c17-5 25-25 13-38l-121-117 8-58 75 33c5 5 13 5 21 0l88-50-9 96c0 9 0 13 9 17l75 67-100 20c-9 0-13 5-17 13l-42 92-41-71z m-350-292l121 63c4 4 12 4 20 0l121-63-25 138c0 8 0 12 4 16l100 96-137 21c-8 0-13 4-17 12l-62 125-63-125c-4-4-8-8-16-12l-138-21 100-96c4-4 8-12 4-16l-12-138z"></path>
    </g>

</svg>